<svg width="24" height="25" viewBox="0 0 24 25" fill="none" xmlns="http://www.w3.org/2000/svg">
<path fill-rule="evenodd" clip-rule="evenodd" d="M10.139 3.0136C10.5401 2.46509 11.1631 2.10001 12.0463 2.10001C12.8848 2.10001 13.4798 2.45708 13.8635 2.99058C14.0826 3.29526 14.2263 3.64772 14.3198 4.00469C14.3669 4.18447 14.5098 4.3233 14.6909 4.36515C17.7223 5.0657 19.4242 7.09245 20.3545 9.58649C21.3345 12.2138 21.4721 15.382 21.4927 18.0972C21.5012 19.2065 20.599 20.1 19.4963 20.1H14.9042C14.6637 20.1 14.4573 20.2712 14.4128 20.5076C14.3067 21.072 14.1034 21.583 13.8245 22.0003C13.4014 22.6335 12.7639 23.1 11.9963 23.1C11.2287 23.1 10.5912 22.6335 10.1681 22.0003C9.88922 21.583 9.68596 21.072 9.57981 20.5076C9.53536 20.2712 9.32893 20.1 9.08842 20.1H4.49631C3.39364 20.1 2.49117 19.2063 2.50007 18.0968C2.52144 15.4291 2.66146 12.3233 3.64159 9.72244C4.57318 7.25036 6.27301 5.22036 9.29789 4.44183C9.47456 4.39636 9.61244 4.25828 9.65766 4.08155C9.7532 3.70811 9.9036 3.33544 10.139 3.0136ZM12.0463 3.10001C11.7854 3.10001 11.5585 3.14473 11.3628 3.24364C11.1631 3.34461 11.0349 3.48253 10.9461 3.60392C10.7141 3.92121 10.5888 4.36864 10.5329 4.84787C10.5076 5.06536 10.3437 5.24106 10.1285 5.28143C8.63479 5.56164 7.46528 6.15659 6.55493 6.9977C5.64806 7.83559 5.02166 8.89606 4.57735 10.0751C3.66647 12.4922 3.52142 15.4356 3.50003 18.1048C3.49567 18.6491 3.93917 19.1 4.49631 19.1H19.4963C20.0534 19.1 20.4969 18.6493 20.4928 18.1048C20.4721 15.386 20.3292 12.38 19.4175 9.93597C18.9732 8.74468 18.3474 7.68164 17.4402 6.8557C16.5288 6.02592 15.3592 5.45906 13.8684 5.2239C13.647 5.18898 13.4759 5.01101 13.4497 4.78843C13.3939 4.31381 13.2709 3.87935 13.0516 3.57443C12.9704 3.46145 12.8521 3.32953 12.6659 3.23339C12.4834 3.1391 12.2762 3.10001 12.0463 3.10001ZM11.1477 20.1C10.9877 20.1 10.8373 20.1766 10.7432 20.306C10.6491 20.4354 10.6227 20.6021 10.6721 20.7543C10.7562 21.0136 10.8677 21.2474 10.9995 21.4447C11.3067 21.9043 11.6711 22.1 11.9963 22.1C12.3215 22.1 12.686 21.9043 12.9931 21.4447C13.1249 21.2474 13.2364 21.0136 13.3206 20.7543C13.3699 20.6021 13.3435 20.4354 13.2494 20.306C13.1553 20.1766 13.005 20.1 12.845 20.1H11.1477Z" fill="black"/>
</svg>
