<svg width="24" height="25" viewBox="0 0 24 25" fill="none" xmlns="http://www.w3.org/2000/svg">
<path fill-rule="evenodd" clip-rule="evenodd" d="M17.5572 5.13334C17.7736 5.13334 17.9654 5.27257 18.0325 5.47833L19.7064 10.6117C19.8118 10.9348 19.7064 11.2667 19.2311 11.2667H4.76898C4.29362 11.2667 4.18824 10.9348 4.29362 10.6117L5.96753 5.47833C6.03463 5.27257 6.22648 5.13334 6.4429 5.13334H17.5572ZM5.72577 3.60001C5.29293 3.60001 4.90922 3.87847 4.77504 4.28998L2.42721 11.49C2.21645 12.1363 2.69813 12.8 3.37794 12.8H4V20.9C4 21.4523 4.44772 21.9 5 21.9H19C19.5523 21.9 20 21.4523 20 20.9V12.8H20.6221C21.3019 12.8 21.7836 12.1363 21.5728 11.49L19.225 4.28999C19.0908 3.87847 18.7071 3.60001 18.2743 3.60001H5.72577ZM5.99829 12.8H18.0017C18.2771 12.8009 18.5 13.0244 18.5 13.3V19.9C18.5 20.1761 18.2761 20.4 18 20.4H14V17.35C14 16.3835 13.2165 15.6 12.25 15.6H11.75C10.7835 15.6 10 16.3835 10 17.35V20.4H6C5.72386 20.4 5.5 20.1761 5.5 19.9V13.3C5.5 13.0244 5.72293 12.8009 5.99829 12.8ZM12.5 20.1L12.5 20.4H11.5L11.5 20.1V17.35L11.5 17.3C11.5 17.1343 11.6343 17 11.8 17H12.2C12.3657 17 12.5 17.1343 12.5 17.3V17.3493C12.5 17.3495 12.5 17.3498 12.5 17.35V20.1Z" fill="black"/>
</svg>
