<svg width="24" height="25" viewBox="0 0 24 25" fill="none" xmlns="http://www.w3.org/2000/svg">
<path fill-rule="evenodd" clip-rule="evenodd" d="M10.7885 4.32828C10.7645 4.45503 10.75 4.62517 10.75 4.85001V5.04067L12 9.54517L13.25 5.04067V4.85001C13.25 4.62517 13.2355 4.45503 13.2115 4.32828C13.1873 4.20074 13.1581 4.14193 13.1449 4.1211L13.1421 4.11685C13.1297 4.11222 13.0884 4.10001 13 4.10001H11C10.9116 4.10001 10.8703 4.11222 10.8579 4.11685L10.8551 4.1211C10.8419 4.14193 10.8127 4.20074 10.7885 4.32828ZM6.45138 4.43229C7.28192 3.93132 8.26758 3.6511 9.44146 3.60637C9.48159 3.50656 9.52962 3.41064 9.58694 3.31992C9.91446 2.80152 10.4395 2.60001 11 2.60001H13C13.5605 2.60001 14.0855 2.80152 14.4131 3.31992C14.4704 3.41064 14.5184 3.50656 14.5585 3.60637C15.7324 3.6511 16.7181 3.93133 17.5487 4.43226C18.4556 4.97922 19.1248 5.7573 19.6496 6.66147C20.591 8.28254 20.6544 9.89827 20.7454 12.2181L20.7494 12.3205L20.7705 12.8566C20.9204 13.0247 21.0454 13.2016 21.145 13.3639C21.5028 13.9474 21.75 14.6869 21.75 15.287V15.976C21.75 16.5762 21.5028 17.3157 21.1448 17.8992C20.8119 18.4419 20.1951 19.146 19.312 19.146C19.1761 19.146 19.0423 19.1353 18.9118 19.1149L17.4801 20.5466C14.4535 23.5732 9.54649 23.5732 6.51992 20.5466L5.08821 19.1149C4.95766 19.1353 4.82391 19.146 4.688 19.146C3.80494 19.146 3.18812 18.4419 2.85521 17.8992C2.49724 17.3157 2.25 16.5762 2.25 15.976V15.287C2.25 14.6864 2.4972 13.9469 2.85525 13.3634C2.9548 13.2011 3.07971 13.0245 3.22951 12.8566L3.25058 12.3205L3.2546 12.218C3.34559 9.89836 3.40897 8.28249 4.35142 6.66139C4.87579 5.75725 5.54463 4.97922 6.45138 4.43229ZM14.45 8.35001H13.8883L12.9865 11.6H19.2184C19.1307 9.64324 19.0052 8.53862 18.3524 7.41466C17.9183 6.66683 17.4109 6.10079 16.7741 5.71675C16.2528 5.40242 15.6092 5.18832 14.7841 5.1219L14.75 5.24493V8.05001C14.75 8.21569 14.6157 8.35001 14.45 8.35001ZM9.25 8.05001V5.24493L9.21586 5.1219C8.39085 5.18832 7.7472 5.40242 7.22612 5.71672C6.5895 6.10072 6.08196 6.6673 5.64837 7.415C4.99492 8.53882 4.8693 9.64327 4.78163 11.6H11.0135L10.1117 8.35001H9.55C9.38431 8.35001 9.25 8.21569 9.25 8.05001ZM5.0227 13.1L4.91119 13.6395C4.83822 13.6244 4.76389 13.6169 4.68938 13.617L4.688 13.617C4.63888 13.617 4.41171 13.6949 4.13375 14.1479C3.8808 14.5601 3.75 15.0306 3.75 15.287V15.976C3.75 16.2319 3.88076 16.7023 4.13379 17.1148C4.41188 17.5681 4.63906 17.646 4.688 17.646C4.81979 17.646 4.94492 17.6223 5.05822 17.5804L5.50874 17.4141L7.58058 19.4859C10.0214 21.9267 13.9786 21.9267 16.4194 19.4859L18.4913 17.4141L18.9418 17.5804C19.0551 17.6223 19.1802 17.646 19.312 17.646C19.3609 17.646 19.5881 17.5681 19.8662 17.1148C20.1192 16.7023 20.25 16.2319 20.25 15.976V15.287C20.25 15.0311 20.1192 14.5606 19.8663 14.1481C19.5881 13.6945 19.3612 13.617 19.313 13.617C19.2341 13.617 19.1594 13.625 19.091 13.6392L18.9786 13.1H5.0227ZM10.5235 19.681C10.1182 19.4108 9.75 18.955 9.75 18.35H11.25C11.25 18.3416 11.2492 18.3357 11.2484 18.3319C11.2542 18.3445 11.2778 18.3811 11.3555 18.433C11.4878 18.5212 11.7136 18.6 12 18.6C12.2864 18.6 12.5122 18.5212 12.6445 18.433C12.7222 18.3811 12.7458 18.3445 12.7516 18.3319C12.7508 18.3357 12.75 18.3416 12.75 18.35H14.25C14.25 18.955 13.8818 19.4108 13.4765 19.681C13.0658 19.9549 12.5416 20.1 12 20.1C11.4584 20.1 10.9342 19.9549 10.5235 19.681ZM9.25 14.35C8.83579 14.35 8.5 14.6858 8.5 15.1V15.6C8.5 16.0142 8.83579 16.35 9.25 16.35C9.66421 16.35 10 16.0142 10 15.6V15.1C10 14.6858 9.66421 14.35 9.25 14.35ZM14.75 14.35C14.3358 14.35 14 14.6858 14 15.1V15.6C14 16.0142 14.3358 16.35 14.75 16.35C15.1642 16.35 15.5 16.0142 15.5 15.6V15.1C15.5 14.6858 15.1642 14.35 14.75 14.35Z" fill="black"/>
</svg>
