<svg width="24" height="25" viewBox="0 0 24 25" fill="none" xmlns="http://www.w3.org/2000/svg">
<path d="M3 5.60001C3 5.04772 3.44772 4.60001 4 4.60001H20C20.5523 4.60001 21 5.04772 21 5.60001C21 6.15229 20.5523 6.60001 20 6.60001H4C3.44772 6.60001 3 6.15229 3 5.60001ZM3 12.6C3 12.0477 3.44772 11.6 4 11.6H20C20.5523 11.6 21 12.0477 21 12.6C21 13.1523 20.5523 13.6 20 13.6H4C3.44772 13.6 3 13.1523 3 12.6ZM3 19.6C3 19.0477 3.44772 18.6 4 18.6H20C20.5523 18.6 21 19.0477 21 19.6C21 20.1523 20.5523 20.6 20 20.6H4C3.44772 20.6 3 20.1523 3 19.6Z" fill="black"/>
</svg>
