<svg width="24" height="25" viewBox="0 0 24 25" fill="none" xmlns="http://www.w3.org/2000/svg">
<path fill-rule="evenodd" clip-rule="evenodd" d="M2.5 4.60001C2.5 4.04772 2.94771 3.60001 3.5 3.60001H5.5H18H20.5C21.0523 3.60001 21.5 4.04772 21.5 4.60001V10.35C21.5 11.212 21.1576 12.0386 20.5481 12.6481C20.3113 12.8849 20.0417 13.0814 19.75 13.2332V20.35C19.75 20.9023 19.3023 21.35 18.75 21.35H5.25C4.69772 21.35 4.25 20.9023 4.25 20.35V13.2332C3.9583 13.0814 3.68871 12.8849 3.4519 12.6481C2.84241 12.0386 2.5 11.212 2.5 10.35V4.60001ZM15.4519 12.6481C16.0614 13.2576 16.888 13.6 17.75 13.6H18.25V19.35C18.25 19.6261 18.0261 19.85 17.75 19.85H6.25C5.97386 19.85 5.75 19.6261 5.75 19.35V13.6H6.25C7.11195 13.6 7.9386 13.2576 8.5481 12.6481C8.72073 12.4755 8.87193 12.2854 9 12.0821C9.12807 12.2854 9.27927 12.4755 9.4519 12.6481C10.0614 13.2576 10.888 13.6 11.75 13.6H12.25C13.112 13.6 13.9386 13.2576 14.5481 12.6481C14.7207 12.4755 14.8719 12.2854 15 12.0821C15.1281 12.2854 15.2793 12.4755 15.4519 12.6481ZM8 5.40001C8 5.23432 7.86569 5.10001 7.7 5.10001H4.3C4.13431 5.10001 4 5.23432 4 5.40001V10.35C4 10.8141 4.18437 11.2593 4.51256 11.5874C4.84075 11.9156 5.28587 12.1 5.75 12.1H6.25C6.71413 12.1 7.15925 11.9156 7.48744 11.5874C7.81563 11.2593 8 10.8141 8 10.35V5.40001ZM10.3 5.10001C10.1343 5.10001 10 5.23432 10 5.40001V10.35C10 10.8141 10.1844 11.2593 10.5126 11.5874C10.8408 11.9156 11.2859 12.1 11.75 12.1H12.25C12.7141 12.1 13.1592 11.9156 13.4874 11.5874C13.8156 11.2593 14 10.8141 14 10.35V5.40001C14 5.23432 13.8657 5.10001 13.7 5.10001H10.3ZM16.3 5.10001C16.1343 5.10001 16 5.23432 16 5.40001V10.35C16 10.8141 16.1844 11.2593 16.5126 11.5874C16.8408 11.9156 17.2859 12.1 17.75 12.1H18.25C18.7141 12.1 19.1592 11.9156 19.4874 11.5874C19.8156 11.2593 20 10.8141 20 10.35V5.40001C20 5.23432 19.8657 5.10001 19.7 5.10001H16.3Z" fill="black"/>
</svg>
