<svg width="130" height="38" viewBox="0 0 130 38" fill="none" xmlns="http://www.w3.org/2000/svg">
<path d="M27.7009 1V15.0984H22.4064V1.20492H18.826V35.3852H22.4064V18.9098H27.7009V36H31.2813V1H27.7009ZM4.6947 30.3033V2.18853H1V33.9098H8.46558C11.3985 33.9098 14.5218 33.459 16.4644 32.5574V28.9508C14.4838 29.7705 11.6651 30.3033 8.88457 30.3033H4.6947Z" fill="#191A20"/>
<path d="M59.8072 18.1311H63.5781V1H59.8072V18.1311ZM43.9238 17.6803C49.942 17.6803 53.9795 14.2787 53.9795 9.52459C53.9795 4.77049 49.942 1.36885 43.9238 1.36885C37.9057 1.36885 33.8301 4.77049 33.8301 9.52459C33.8301 14.2787 37.9057 17.6803 43.9238 17.6803ZM43.9238 14.4016C40.191 14.4016 37.5628 12.4754 37.5628 9.52459C37.5628 6.57377 40.191 4.64754 43.9238 4.64754C47.6566 4.64754 50.2467 6.57377 50.2467 9.52459C50.2467 12.4754 47.6566 14.4016 43.9238 14.4016ZM36.4202 35.5492H64.378V32.3525H40.1529V29.3197H63.5781V20.0574H36.344V23.2541H59.8453V26.2869H36.4202V35.5492Z" fill="#191A20"/>
<path d="M93.1324 36H96.9033V1H93.1324V36ZM77.5918 23.7869C83.4196 23.7869 87.6475 19.2787 87.6475 12.7623C87.6475 6.2459 83.4196 1.73771 77.5918 1.73771C71.726 1.73771 67.5362 6.2459 67.5362 12.7623C67.5362 19.2787 71.726 23.7869 77.5918 23.7869ZM77.5918 20.0984C73.7067 20.0984 71.2309 16.9426 71.2309 12.7623C71.2309 8.58197 73.7067 5.38525 77.5918 5.38525C81.4389 5.38525 83.9528 8.58197 83.9528 12.7623C83.9528 16.9426 81.4389 20.0984 77.5918 20.0984ZM66.4316 33.9098H79.4963C84.1814 33.9098 88.2189 33.2951 90.39 32.2295V28.459C88.1808 29.5656 84.1814 30.0984 79.7249 30.0984H66.4316V33.9098Z" fill="#191A20"/>
<path d="M126.229 1V19.1967H130V1H126.229ZM111.336 12.3115L121.201 18.5L122.991 15.4672L112.783 9.19672C113.202 8.0082 113.469 6.69672 113.545 5.34426H121.925V1.90164H100.861V5.34426H109.736C109.241 10.5902 105.813 14.4426 100.442 15.2213V18.8279C105.242 18.3361 109.051 15.918 111.336 12.3115ZM126.305 24.6066H106.118V20.7131H102.423V35.5492H130V20.7131H126.305V24.6066ZM106.118 32.2295V27.8852H126.305V32.2295H106.118Z" fill="#191A20"/>
</svg>
