<?xml version="1.0" standalone="no"?>
<!DOCTYPE svg PUBLIC "-//W3C//DTD SVG 20010904//EN"
 "http://www.w3.org/TR/2001/REC-SVG-20010904/DTD/svg10.dtd">
<svg version="1.0" xmlns="http://www.w3.org/2000/svg"
 width="968.000000pt" height="968.000000pt" viewBox="0 0 968.000000 968.000000"
 preserveAspectRatio="xMidYMid meet">
<metadata>
Created by potrace 1.11, written by Peter Selinger 2001-2013
</metadata>
<g transform="translate(0.000000,968.000000) scale(0.100000,-0.100000)"
fill="#000000" stroke="none">
<path d="M2127 9634 c-1 -1 -59 -4 -128 -8 -70 -3 -133 -8 -140 -10 -8 -3 -32
-7 -54 -11 -127 -18 -124 -17 -185 -34 -99 -26 -186 -52 -205 -61 -11 -5 -60
-25 -110 -46 -135 -56 -344 -172 -353 -196 -2 -4 -8 -8 -13 -8 -9 0 -108 -73
-174 -130 -53 -44 -225 -218 -225 -227 0 -5 -9 -15 -20 -23 -11 -8 -20 -20
-20 -27 0 -7 -4 -13 -9 -13 -9 0 -52 -59 -134 -187 -54 -83 -157 -284 -157
-305 0 -8 -4 -18 -8 -23 -11 -12 -52 -127 -58 -162 -3 -15 -8 -31 -12 -37 -3
-6 -7 -15 -8 -21 -8 -41 -14 -64 -22 -86 -6 -15 -9 -29 -6 -31 2 -3 0 -18 -5
-34 -6 -16 -12 -49 -16 -74 -3 -25 -9 -70 -13 -100 -10 -75 -9 -5806 1 -5899
4 -41 10 -84 13 -95 3 -12 7 -34 9 -51 2 -16 4 -30 5 -30 1 0 4 -13 6 -30 3
-16 7 -37 11 -45 3 -8 7 -26 9 -39 2 -13 6 -31 10 -40 8 -18 10 -26 18 -56 45
-186 226 -519 385 -708 84 -100 231 -245 303 -299 20 -15 42 -33 50 -40 7 -7
25 -19 41 -27 15 -8 27 -18 27 -23 0 -4 7 -8 15 -8 8 0 15 -4 15 -8 0 -5 17
-17 38 -28 58 -32 87 -49 92 -55 8 -9 180 -90 265 -124 78 -32 142 -51 158
-47 4 1 7 -2 7 -6 0 -5 6 -9 13 -10 6 0 46 -9 87 -20 92 -24 144 -33 280 -48
97 -11 5774 -11 5860 -1 118 15 185 25 212 33 10 3 30 8 45 11 37 7 41 8 93
22 25 8 50 14 55 16 6 1 24 8 40 14 17 7 39 15 50 17 11 2 29 8 40 13 11 5 52
23 90 40 39 16 95 43 125 60 30 16 71 38 90 48 19 9 40 22 47 28 36 31 43 35
43 30 0 -5 135 92 179 130 133 112 268 253 336 349 11 16 30 41 43 56 12 15
22 32 22 38 0 6 4 12 8 14 16 6 127 198 115 198 -4 0 -3 4 3 8 11 7 74 131 74
146 0 4 9 26 19 49 11 23 21 51 23 62 1 11 6 22 10 25 3 3 8 19 10 35 2 17 6
32 9 35 4 3 18 57 32 120 27 120 31 146 44 245 11 80 10 5823 0 5900 -4 33
-10 72 -12 87 -2 14 -6 39 -9 55 -4 15 -9 38 -11 51 -3 12 -7 32 -10 45 -2 12
-8 36 -11 52 -3 17 -9 35 -12 40 -4 6 -8 19 -10 30 -5 26 -8 37 -15 55 -4 8
-15 40 -26 71 -19 56 -101 239 -111 249 -3 3 -14 23 -25 45 -21 42 -57 101
-75 122 -5 7 -10 15 -10 18 0 6 -47 73 -60 85 -3 3 -18 23 -35 45 -80 108
-218 246 -350 349 -60 47 -115 91 -122 96 -7 6 -15 10 -18 10 -4 0 -25 13 -48
28 -35 24 -237 134 -244 133 -2 0 -17 6 -103 42 -14 6 -27 11 -30 12 -3 0 -34
10 -70 22 -82 26 -166 50 -205 58 -16 3 -41 8 -55 11 -14 3 -41 7 -60 10 -19
3 -48 7 -65 9 -99 15 -524 17 -2978 19 -1495 0 -2719 0 -2720 0z"/>
</g>
</svg>
