<svg width="24" height="25" viewBox="0 0 24 25" fill="none" xmlns="http://www.w3.org/2000/svg">
<path fill-rule="evenodd" clip-rule="evenodd" d="M2.79289 3.3929C2.98043 3.20536 3.23478 3.10001 3.5 3.10001H20.5C20.7652 3.10001 21.0196 3.20536 21.2071 3.3929C21.3946 3.58044 21.5 3.83479 21.5 4.10001V21.8995C21.5 22.5794 20.7751 23.0137 20.1756 22.6931L12.7072 18.6989C12.4897 18.5826 12.2467 18.5217 12 18.5217C11.7533 18.5217 11.5102 18.5827 11.2927 18.699L3.23673 23.0084C2.90334 23.1868 2.5 22.9453 2.5 22.567V4.10001C2.5 3.83479 2.60536 3.58044 2.79289 3.3929ZM20.5 4.10001H3.5V21.7335L10.8213 17.8171C11.1839 17.6232 11.5888 17.5217 12 17.5217C12.4112 17.5217 12.8162 17.6232 13.1788 17.8171L20.5 21.7326V4.10001Z" fill="black"/>
</svg>
