<svg width="24" height="25" viewBox="0 0 24 25" fill="none" xmlns="http://www.w3.org/2000/svg">
<path fill-rule="evenodd" clip-rule="evenodd" d="M4.35132 22.9214L11.731 18.9584C11.8138 18.9142 11.9062 18.891 12 18.891C12.0938 18.891 12.1862 18.9142 12.269 18.9584L19.6492 22.9217C19.8408 23.0241 20.0555 23.0751 20.2725 23.0696C20.4895 23.0641 20.7014 23.0024 20.8877 22.8905C21.0739 22.7785 21.2281 22.6201 21.3354 22.4306C21.4427 22.2411 21.4994 22.0261 21.5 21.8081V4.82415C21.5 4.36688 21.3191 3.92833 20.9971 3.605C20.6752 3.28166 20.2385 3.10001 19.7831 3.10001H4.21687C3.76153 3.10001 3.32483 3.28166 3.00286 3.605C2.68088 3.92833 2.5 4.36688 2.5 4.82415V21.809C2.50058 22.027 2.55727 22.2411 2.66456 22.4306C2.77185 22.6201 2.9261 22.7785 3.11235 22.8905C3.29858 23.0024 3.51049 23.0641 3.72748 23.0696C3.94448 23.0751 4.15972 23.0238 4.35132 22.9214Z" fill="black"/>
</svg>
