<svg width="24" height="25" viewBox="0 0 24 25" fill="none" xmlns="http://www.w3.org/2000/svg">
<path fill-rule="evenodd" clip-rule="evenodd" d="M1.5 2C1.22386 2 1 2.22386 1 2.5C1 2.77614 1.22386 3 1.5 3H3.5C3.77614 3 4 3.22386 4 3.5V5.5C4 5.54005 4.00482 5.58039 4.01467 5.62018L6.61406 16.1179L6.61582 16.1247C6.75754 16.6748 7.08235 17.1602 7.53676 17.501C7.9873 17.8389 8.53862 18.0147 9.10133 18.0002L9.11425 17.9998L17.8987 18C18.4614 18.0145 19.0127 17.8389 19.4633 17.501C19.9171 17.1606 20.2417 16.676 20.3837 16.1269L20.3842 16.1248L22.9854 5.62018C23.0223 5.47092 22.9885 5.31295 22.8938 5.19185C22.799 5.07076 22.6538 5 22.5 5H5.5C5.22386 5 5 4.77614 5 4.5V2.5C5 2.22386 4.77614 2 4.5 2H1.5ZM17 19C17.5304 19 18.0391 19.2107 18.4142 19.5858C18.7893 19.9609 19 20.4696 19 21C19 21.5304 18.7893 22.0391 18.4142 22.4142C18.0392 22.7893 17.5304 23 17 23C16.4696 23 15.9609 22.7893 15.5858 22.4142C15.2107 22.0391 15 21.5304 15 21C15 20.4696 15.2107 19.9609 15.5858 19.5858C15.9609 19.2107 16.4696 19 17 19ZM5.38407 6.19185C5.47884 6.07076 5.62406 6 5.77783 6H21.2222C21.376 6 21.5212 6.07076 21.6159 6.19185C21.7107 6.31295 21.7445 6.47092 21.7075 6.62018L19.4144 15.8809C19.3286 16.2086 19.1343 16.4977 18.8633 16.701C18.5913 16.905 18.2581 17.0105 17.9183 17.0003L17.9158 17.0002L17.9058 17H17.9H9.10001L9.0842 17.0002C8.74357 17.011 8.4094 16.9055 8.13676 16.701C7.86568 16.4977 7.67147 16.2086 7.58567 15.8809L7.58398 15.8745L5.29249 6.62018C5.25553 6.47092 5.2893 6.31295 5.38407 6.19185ZM10 19C9.46957 19 8.96087 19.2107 8.5858 19.5858C8.21072 19.9609 8.00001 20.4696 8.00001 21C8.00001 21.5304 8.21072 22.0391 8.5858 22.4142C8.96087 22.7893 9.46957 23 10 23C10.5304 23 11.0392 22.7893 11.4142 22.4142C11.7893 22.0391 12 21.5304 12 21C12 20.4696 11.7893 19.9609 11.4142 19.5858C11.0392 19.2107 10.5304 19 10 19ZM9.2929 20.2929C9.48044 20.1054 9.7348 20 10 20C10.2652 20 10.5196 20.1054 10.7071 20.2929C10.8946 20.4804 11 20.7348 11 21C11 21.2652 10.8947 21.5196 10.7071 21.7071C10.5196 21.8946 10.2652 22 10 22C9.7348 22 9.48044 21.8946 9.2929 21.7071C9.10536 21.5196 9.00001 21.2652 9.00001 21C9.00001 20.7348 9.10536 20.4804 9.2929 20.2929ZM17 22C17.5523 22 18 21.5523 18 21C18 20.4477 17.5523 20 17 20C16.4477 20 16 20.4477 16 21C16 21.5523 16.4477 22 17 22Z" fill="black"/>
</svg>
