<svg width="24" height="25" viewBox="0 0 24 25" fill="none" xmlns="http://www.w3.org/2000/svg">
<path fill-rule="evenodd" clip-rule="evenodd" d="M18.7071 7.30711C19.0976 6.91659 19.0976 6.28342 18.7071 5.8929C18.3166 5.50238 17.6834 5.50238 17.2929 5.8929L12 11.1858L6.70711 5.8929C6.31658 5.50238 5.68342 5.50238 5.29289 5.8929C4.90237 6.28342 4.90237 6.91659 5.29289 7.30711L10.5858 12.6L5.29289 17.8929C4.90237 18.2834 4.90237 18.9166 5.29289 19.3071C5.68342 19.6976 6.31658 19.6976 6.70711 19.3071L12 14.0142L17.2929 19.3071C17.6834 19.6976 18.3166 19.6976 18.7071 19.3071C19.0976 18.9166 19.0976 18.2834 18.7071 17.8929L13.4142 12.6L18.7071 7.30711Z" fill="black"/>
</svg>
