<svg width="24" height="25" viewBox="0 0 24 25" fill="none" xmlns="http://www.w3.org/2000/svg">
<path fill-rule="evenodd" clip-rule="evenodd" d="M12 3.60001C9.79086 3.60001 8 5.39087 8 7.60001V10.6H16V7.60001C16 5.39087 14.2091 3.60001 12 3.60001ZM6 7.60001V10.6H5C3.34315 10.6 2 11.9432 2 13.6V20.6C2 22.2569 3.34315 23.6 5 23.6H19C20.6569 23.6 22 22.2569 22 20.6V13.6C22 11.9432 20.6569 10.6 19 10.6H18V7.60001C18 4.2863 15.3137 1.60001 12 1.60001C8.68629 1.60001 6 4.2863 6 7.60001ZM12 19.1C13.1046 19.1 14 18.2046 14 17.1C14 15.9954 13.1046 15.1 12 15.1C10.8954 15.1 10 15.9954 10 17.1C10 18.2046 10.8954 19.1 12 19.1Z" fill="black"/>
</svg>
