<svg width="24" height="25" viewBox="0 0 24 25" fill="none" xmlns="http://www.w3.org/2000/svg">
<path fill-rule="evenodd" clip-rule="evenodd" d="M12 22.6C17.5228 22.6 22 18.1229 22 12.6C22 7.07716 17.5228 2.60001 12 2.60001C6.47715 2.60001 2 7.07716 2 12.6C2 18.1229 6.47715 22.6 12 22.6ZM9.56464 8.23702C9.50349 8.22901 9.42808 8.22501 9.3384 8.22501H8.25V16.975H10.0722V12.2847C10.0722 12.1566 10.0681 12.0205 10.0599 11.8763C10.0518 11.7282 10.0416 11.5781 10.0294 11.4259L14.2301 16.6387C14.332 16.7668 14.438 16.8549 14.548 16.9029C14.6581 16.951 14.7926 16.975 14.9516 16.975H16.0278V8.22501H14.2056V12.8552C14.2056 12.9954 14.2097 13.1455 14.2179 13.3057C14.226 13.4618 14.2382 13.6239 14.2545 13.7921L10.0232 8.53729C9.96617 8.46923 9.91521 8.41518 9.87037 8.37514C9.82553 8.33511 9.77865 8.30508 9.72973 8.28506C9.68082 8.26104 9.62579 8.24502 9.56464 8.23702Z" fill="black"/>
</svg>
