<svg width="24" height="25" viewBox="0 0 24 25" fill="none" xmlns="http://www.w3.org/2000/svg">
<path fill-rule="evenodd" clip-rule="evenodd" d="M21.6464 22.9535L21.2929 22.6L16.6548 17.9619L16.3053 18.2415C14.8511 19.4047 13.0074 20.1 11 20.1C6.30558 20.1 2.5 16.2944 2.5 11.6C2.5 6.90559 6.30558 3.10001 11 3.10001C15.6944 3.10001 19.5 6.90559 19.5 11.6C19.5 13.6075 18.8047 15.4512 17.6414 16.9054L17.3619 17.2548L22.3478 22.2408L22.3507 22.2436C22.4434 22.3349 22.5 22.4604 22.5 22.6C22.5 22.8761 22.2761 23.1 22 23.1C21.8618 23.1 21.7375 23.0446 21.6464 22.9535ZM11 4.10001C6.85786 4.10001 3.5 7.45787 3.5 11.6C3.5 15.7421 6.85786 19.1 11 19.1C15.1421 19.1 18.5 15.7421 18.5 11.6C18.5 7.45787 15.1421 4.10001 11 4.10001Z" fill="black"/>
</svg>
